{"title":"Exploitedteens - Asterid POV.mpg","uid":9142845,"size":278923268,"categoryP":"porn","categoryS":"movie_clips","magnet":"?xt=urn:btih:3b313fdbc7d62ab84b90e92bf398aaf56420fad2&amp;dn=Exploitedteens+-+Asterid+POV.mpg&amp;tr=udp%3A%2F%2Ftracker.openbittorrent.com%3A80&amp;tr=udp%3A%2F%2Fopen.demonii.com%3A1337&amp;tr=udp%3A%2F%2Ftracker.coppersurfer.tk%3A6969&amp;tr=udp%3A%2F%2Fexodus.desync.com%3A6969","seeders":1,"leechers":0,"uploader":null,"files":1,"time":1383536090,"description":" &lt;a href=&quot;http://s14.postimg.org/iiz5agkrl/nmihe4tkcgze.jpg&quot; rel=&quot;nofollow&quot; target=&quot;_NEW&quot;&gt;http://s14.postimg.org/iiz5agkrl/nmihe4tkcgze.jpg&lt;/a&gt;\n\n\n\nhardcore brunette natural.tits amateur shaved cumshot skinny 1.on.1 reality pov straight swallowing blowjob\n\nFormat                         : MPEG-PS\nFile size                      : 266 MiB\nDuration                       : 26mn 26s\nOverall bit rate               : 1 407 Kbps\n\nVideo\nID                             : 224 (0xE0)\nFormat                         : MPEG Video\nFormat version                 : Version 1\nFormat settings, BVOP          : No\nFormat settings, Matrix        : Default\nFormat settings, GOP           : M=3, N=15\nDuration                       : 26mn 26s\nBit rate                       : 1 187 Kbps\nMaximum bit rate               : 1 200 Kbps\nWidth                          : 352 pixels\nHeight                         : 240 pixels\nDisplay aspect ratio           : 4:3\nFrame rate                     : 29.970 fps\nStandard                       : NTSC\nColor space                    : YUV\nChroma subsampling             : 4:2:0\nBit depth                      : 8 bits\nScan type                      : Progressive\nCompression mode               : Lossy\nBits/(Pixel*Frame)             : 0.469\nTime code of first frame       : 00:00:00:00\nTime code source               : Group of pictures header\nStream size                    : 224 MiB (84%)\n\nAudio\nID                             : 192 (0xC0)\nFormat                         : MPEG Audio\nFormat version                 : Version 1\nFormat profile                 : Layer 2\nDuration                       : 26mn 26s\nBit rate mode                  : Constant\nBit rate                       : 192 Kbps\nChannel count                  : 2 channels\nSampling rate                  : 44.1 KHz\nCompression mode               : Lossy\nStream size                    : 36.3 MiB (14%)","torrent":{"xt":"urn:btih:3b313fdbc7d62ab84b90e92bf398aaf56420fad2","amp;dn":"Exploitedteens+-+Asterid+POV.mpg","amp;tr":["udp%3A%2F%2Ftracker.openbittorrent.com%3A80","udp%3A%2F%2Fopen.demonii.com%3A1337","udp%3A%2F%2Ftracker.coppersurfer.tk%3A6969","udp%3A%2F%2Fexodus.desync.com%3A6969"],"infoHash":"3b313fdbc7d62ab84b90e92bf398aaf56420fad2","infoHashBuffer":{"type":"Buffer","data":[59,49,63,219,199,214,42,184,75,144,233,43,243,152,170,245,100,32,250,210]},"announce":[],"urlList":[]}}